<svg id="Layer_1" data-name="Layer 1" xmlns="http://www.w3.org/2000/svg" xmlns:xlink="http://www.w3.org/1999/xlink" viewBox="0 0 144 30"><defs><style>.cls-1{fill:none;}.cls-2{clip-path:url(#clip-path);}.cls-3{fill:#fff;}.cls-4{fill:#212121;}.cls-5{clip-path:url(#clip-path-2);}.cls-6{clip-path:url(#clip-path-3);}.cls-7{clip-path:url(#clip-path-4);}.cls-8{fill:#8247e5;}.cls-9{clip-path:url(#clip-path-5);}.cls-10{fill:#0b0e11;}.cls-11{clip-path:url(#clip-path-6);}.cls-12{fill:#6e798f;}</style><clipPath id="clip-path"><rect class="cls-1" x="2.32" y="1.21" width="139.35" height="26.56"/></clipPath><clipPath id="clip-path-2"><rect class="cls-1" x="101" y="7.27" width="3" height="10.73"/></clipPath><clipPath id="clip-path-3"><rect class="cls-1" x="126" y="11" width="6.13" height="7"/></clipPath><clipPath id="clip-path-4"><rect class="cls-1" x="66.73" y="7.27" width="17.27" height="14.37"/></clipPath><clipPath id="clip-path-5"><rect class="cls-1" x="63.68" y="8.04" width="11.32" height="13.07"/></clipPath><clipPath id="clip-path-6"><rect class="cls-1" x="130" y="10" width="7.28" height="9"/></clipPath></defs><g class="cls-2"><path class="cls-3" d="M8.36,1.24H135.64a5.83,5.83,0,0,1,1.18.12A5.46,5.46,0,0,1,138,1.7a5.87,5.87,0,0,1,1.05.56,6.47,6.47,0,0,1,.91.75,6,6,0,0,1,.75.91,5.79,5.79,0,0,1,.56,1,6.39,6.39,0,0,1,.34,1.13,5.83,5.83,0,0,1,.12,1.18V21.73a5.74,5.74,0,0,1-.12,1.17,6.15,6.15,0,0,1-.34,1.13,5.47,5.47,0,0,1-.56,1,6,6,0,0,1-.75.92,5.78,5.78,0,0,1-.91.74,5.3,5.3,0,0,1-1.05.56,5.48,5.48,0,0,1-1.13.35,6.64,6.64,0,0,1-1.18.11H8.36a6.64,6.64,0,0,1-1.18-.11,5.48,5.48,0,0,1-1.13-.35,5.3,5.3,0,0,1-1-.56A5.78,5.78,0,0,1,4.09,26a6,6,0,0,1-.75-.92,5.47,5.47,0,0,1-.56-1,6.15,6.15,0,0,1-.34-1.13,5.74,5.74,0,0,1-.12-1.17V7.27a5.83,5.83,0,0,1,.12-1.18A6.39,6.39,0,0,1,2.78,5a5.79,5.79,0,0,1,.56-1A6,6,0,0,1,4.09,3,6.47,6.47,0,0,1,5,2.26a5.87,5.87,0,0,1,1-.56,5.46,5.46,0,0,1,1.13-.34A5.83,5.83,0,0,1,8.36,1.24Z"/></g><path class="cls-4" d="M92.32,11.84a2.52,2.52,0,0,1,1,1,3.44,3.44,0,0,1,.37,1.61,3,3,0,0,1-.4,1.58,2.38,2.38,0,0,1-1.08,1,3.53,3.53,0,0,1-1.61.36,2.51,2.51,0,0,1-1-.18,1.92,1.92,0,0,1-.81-.49v3.16H87V11.6h1.54l.16.67a3.43,3.43,0,0,1,2.19-.82A2.51,2.51,0,0,1,92.32,11.84Zm-1,3.76a1.39,1.39,0,0,0,.47-1.09,1.59,1.59,0,0,0-.44-1.12,1.37,1.37,0,0,0-1-.43,1.74,1.74,0,0,0-.9.22,1.39,1.39,0,0,0-.59.61v1.36a1.39,1.39,0,0,0,.5.64,1.58,1.58,0,0,0,.86.24A1.68,1.68,0,0,0,91.33,15.6Z"/><path class="cls-4" d="M94.7,12.9a2.93,2.93,0,0,1,1.14-1,3.76,3.76,0,0,1,1.66-.39,3.4,3.4,0,0,1,1.67.39,2.9,2.9,0,0,1,1.11,1.06,2.79,2.79,0,0,1,.4,1.52,2.73,2.73,0,0,1-.4,1.51A2.66,2.66,0,0,1,99.17,17a3.67,3.67,0,0,1-1.67.39,3.74,3.74,0,0,1-1.66-.36,2.65,2.65,0,0,1-1.14-1,3.25,3.25,0,0,1-.4-1.58A3.19,3.19,0,0,1,94.7,12.9Zm1.82,2.64a1.21,1.21,0,0,0,1,.42,1.28,1.28,0,0,0,1-.42,1.6,1.6,0,0,0,.37-1.09,1.55,1.55,0,0,0-.37-1.09,1.26,1.26,0,0,0-1-.46,1.32,1.32,0,0,0-1,.43,1.68,1.68,0,0,0-.37,1.12A1.53,1.53,0,0,0,96.52,15.54Z"/><g class="cls-5"><path class="cls-4" d="M101.8,7.3h1.79v10H101.8Z"/></g><path class="cls-4" d="M110.93,11.75l-3.64,8.19h-1.73L106.92,17l-2.6-5.25h2L107.84,15l1.48-3.28Z"/><path class="cls-4" d="M117.78,11.75v5.52a2.39,2.39,0,0,1-.46,1.43,3.22,3.22,0,0,1-1.23,1,4.05,4.05,0,0,1-1.7.36,4.76,4.76,0,0,1-1.21-.15,4.29,4.29,0,0,1-1.6-.94l1-1.22a2.83,2.83,0,0,0,.77.55,2.23,2.23,0,0,0,1,.21,2,2,0,0,0,1.14-.33,1.1,1.1,0,0,0,.46-.94v-.79a2.06,2.06,0,0,1-.8.7,2.93,2.93,0,0,1-1.3.27,2.69,2.69,0,0,1-1.42-.39,2.92,2.92,0,0,1-1-1.07,3.09,3.09,0,0,1-.4-1.48,3,3,0,0,1,.4-1.52,3.13,3.13,0,0,1,1.08-1.09,2.59,2.59,0,0,1,1.39-.39,4,4,0,0,1,1.24.18,1.75,1.75,0,0,1,.83.52l.19-.43ZM116,15.15V13.79a1.29,1.29,0,0,0-.58-.64,2,2,0,0,0-1-.25,1.59,1.59,0,0,0-1.11.43,1.37,1.37,0,0,0-.47,1.09A1.59,1.59,0,0,0,114.42,16,1.75,1.75,0,0,0,116,15.15Z"/><path class="cls-4" d="M119.26,12.91a3,3,0,0,1,1.15-1.07,3.76,3.76,0,0,1,1.66-.39,3.4,3.4,0,0,1,1.67.39,2.92,2.92,0,0,1,1.11,1.07,3,3,0,0,1,.4,1.51,2.79,2.79,0,0,1-.4,1.52A2.59,2.59,0,0,1,123.74,17a3.67,3.67,0,0,1-1.67.39,3.74,3.74,0,0,1-1.66-.36,2.68,2.68,0,0,1-1.15-1,3,3,0,0,1-.4-1.61A2.77,2.77,0,0,1,119.26,12.91Zm1.79,2.63a1.21,1.21,0,0,0,1,.42,1.28,1.28,0,0,0,1-.42,1.6,1.6,0,0,0,.37-1.09,1.55,1.55,0,0,0-.37-1.09,1.32,1.32,0,0,0-1-.43,1.37,1.37,0,0,0-1,.43,1.53,1.53,0,0,0-.4,1.09A1.93,1.93,0,0,0,121.05,15.54Z"/><g class="cls-6"><path class="cls-4" d="M131.58,11.93a1.56,1.56,0,0,1,.55,1.19v4.15h-1.82V13.79a.76.76,0,0,0-.83-.83,1.14,1.14,0,0,0-1,.58,2.75,2.75,0,0,0-.37,1.46v2.27h-1.79V11.75H128l.12.88a2.37,2.37,0,0,1,.87-.85,2.54,2.54,0,0,1,1.29-.3A2,2,0,0,1,131.58,11.93Z"/></g><g class="cls-7"><path class="cls-8" d="M79.36,11.66a1.09,1.09,0,0,0-1,0l-2.41,1.4-1.63.9-2.41,1.4a1.09,1.09,0,0,1-1,0l-1.92-1.09a1.06,1.06,0,0,1-.52-.88V11.24a1,1,0,0,1,.52-.88L70.78,9.3a1.09,1.09,0,0,1,1,0l1.88,1.06a1,1,0,0,1,.52.88v1.39l1.64-.94V10.3a1,1,0,0,0-.52-.88l-3.49-2a1.09,1.09,0,0,0-1,0l-3.55,2a1,1,0,0,0-.53.88v4a1,1,0,0,0,.53.88l3.55,2a1.09,1.09,0,0,0,1,0l2.41-1.36,1.63-.94,2.41-1.37a1.09,1.09,0,0,1,1,0l1.88,1.06a1.06,1.06,0,0,1,.53.88v2.15a1,1,0,0,1-.53.88l-1.88,1.1a1.09,1.09,0,0,1-1,0l-1.88-1.07a1,1,0,0,1-.53-.88V16.27l-1.63.94v1.4a1,1,0,0,0,.52.87l3.55,2a1,1,0,0,0,1,0l3.55-2a1,1,0,0,0,.52-.87v-4a1,1,0,0,0-.52-.87Z"/></g><path class="cls-3" d="M66.32,6.32h68.36V22H66.32V6.32"/><g class="cls-9"><path class="cls-10" d="M65.84,10l3.43-2,3.43,2-1.26.74L69.27,9.51,67.1,10.77Zm6.86,2.51-1.26-.73-2.17,1.26L67.1,11.81l-1.26.73V14L68,15.27v2.52l1.26.73,1.26-.73V15.27L72.7,14Zm0,4V15.06l-1.26.73v1.48Zm.9.52-2.17,1.26v1.47l3.43-2v-4l-1.26.74Zm-1.26-5.76L73.6,12V13.5l1.26-.74V11.29l-1.26-.74ZM68,18.84v1.48l1.26.73,1.26-.73V18.84l-1.26.74Zm-2.17-2.31,1.26.74V15.79l-1.26-.73ZM68,11.29l1.26.73,1.26-.73-1.26-.74ZM65,12l1.26-.73L65,10.55l-1.26.74v1.47L65,13.5Zm0,2.52-1.26-.74v4l3.43,2V18.31L65,17.05Z"/></g><path class="cls-10" d="M84.8,16.2v0a1.78,1.78,0,0,0-1.35-1.78,1.68,1.68,0,0,0,.94-1.56v0c0-1.14-.9-1.87-2.37-1.87H78.68v7.24h3.43C83.73,18.19,84.8,17.53,84.8,16.2Zm-2-3.09c0,.54-.44.76-1.14.76H80.22V12.34h1.57c.66,0,1,.27,1,.75Zm.4,2.9c0,.54-.42.78-1.11.78H80.22V15.2h1.83c.81,0,1.17.3,1.17.79Z"/><path class="cls-10" d="M92.59,18.19V11H91v4.46L87.66,11H86.2v7.24h1.56v-4.6l3.49,4.6Z"/><path class="cls-10" d="M100.53,16.2v0a1.77,1.77,0,0,0-1.34-1.78,1.68,1.68,0,0,0,.94-1.56v0c0-1.14-.9-1.87-2.37-1.87H94.42v7.24h3.42C99.46,18.19,100.53,17.53,100.53,16.2Zm-2-3.09c0,.54-.44.76-1.14.76H96V12.34h1.56c.67,0,1,.27,1,.75ZM99,16c0,.54-.42.78-1.12.78H96V15.2h1.83c.81,0,1.17.3,1.17.79Z"/><path class="cls-10" d="M110.07,16.91l-.81-.83a2.83,2.83,0,0,1-2.07.94,2.44,2.44,0,0,1-2.37-2.58,2.43,2.43,0,0,1,2.37-2.57,2.85,2.85,0,0,1,2,.9l.81-.94a3.75,3.75,0,0,0-2.82-1.13,3.66,3.66,0,0,0-3.71,3.76,3.64,3.64,0,0,0,3.66,3.74A3.69,3.69,0,0,0,110.07,16.91Z"/><path class="cls-10" d="M116.2,15v3.05h1.26V10.83H116.2v3h-3.44v-3H111.5v7.24h1.26V15Z"/><path class="cls-10" d="M123.13,10.77H122l-3.17,7.3h1.3l.73-1.75h3.41l.73,1.75h1.33Zm.64,4.43h-2.48l1.23-2.9Z"/><path class="cls-10" d="M127.7,10.83v7.24H129V10.83Z"/><g class="cls-11"><path class="cls-10" d="M136,15.84l-3.86-5H131v7.24h1.24V12.92l4,5.15h1.06V10.83H136Z"/></g><path class="cls-12" d="M9.65,17.4a2.8,2.8,0,0,1-.81-.31l.46-1a2.7,2.7,0,0,0,.67.28,2.61,2.61,0,0,0,.71.11,1,1,0,0,0,.42-.06c.09,0,.13-.09.13-.17s-.06-.15-.17-.2a3.94,3.94,0,0,0-.54-.14,6.51,6.51,0,0,1-.81-.22,1.43,1.43,0,0,1-.56-.38,1.05,1.05,0,0,1-.24-.73,1.25,1.25,0,0,1,.22-.72,1.58,1.58,0,0,1,.66-.51,2.85,2.85,0,0,1,1.07-.18,4,4,0,0,1,.85.09,2.7,2.7,0,0,1,.74.27l-.43,1a2.56,2.56,0,0,0-1.17-.31c-.36,0-.55.08-.55.26s.06.15.17.19a2.67,2.67,0,0,0,.53.13,5.22,5.22,0,0,1,.81.21,1.47,1.47,0,0,1,.57.38,1,1,0,0,1,.25.72,1.21,1.21,0,0,1-.23.72,1.46,1.46,0,0,1-.66.51,2.63,2.63,0,0,1-1.07.19A4.31,4.31,0,0,1,9.65,17.4Z"/><path class="cls-12" d="M13.55,17A2,2,0,0,1,13,15.53V13.22h1.42v2.27a1.08,1.08,0,0,0,.16.67.57.57,0,0,0,.48.21.54.54,0,0,0,.47-.21,1,1,0,0,0,.17-.67V13.22H17.1v2.31A2,2,0,0,1,16.56,17a2.1,2.1,0,0,1-1.5.52A2.11,2.11,0,0,1,13.55,17Z"/><path class="cls-12" d="M20.79,13.41a1.52,1.52,0,0,1,.66.56,1.59,1.59,0,0,1,0,1.68,1.5,1.5,0,0,1-.66.55,2.48,2.48,0,0,1-1,.19h-.6v1H17.75v-4.2h2A2.65,2.65,0,0,1,20.79,13.41Zm-.68,1.76a.46.46,0,0,0,.15-.36.47.47,0,0,0-.15-.37.65.65,0,0,0-.43-.13h-.51v1h.51A.6.6,0,0,0,20.11,15.17Z"/><path class="cls-12" d="M25.18,13.41a1.55,1.55,0,0,1,.67.56,1.65,1.65,0,0,1,0,1.68,1.53,1.53,0,0,1-.67.55,2.4,2.4,0,0,1-1,.19h-.61v1H22.15v-4.2h2A2.56,2.56,0,0,1,25.18,13.41Zm-.67,1.76a.46.46,0,0,0,.15-.36.47.47,0,0,0-.15-.37.65.65,0,0,0-.43-.13h-.52v1h.52A.6.6,0,0,0,24.51,15.17Z"/><path class="cls-12" d="M27.59,17.24a2.21,2.21,0,0,1-.85-3,2.21,2.21,0,0,1,.85-.78,2.8,2.8,0,0,1,2.44,0,2.11,2.11,0,0,1,.84.78,2.09,2.09,0,0,1,.31,1.13A2.15,2.15,0,0,1,30,17.24a2.8,2.8,0,0,1-2.44,0Zm1.7-1a.83.83,0,0,0,.33-.36,1.13,1.13,0,0,0,.13-.56,1.09,1.09,0,0,0-.13-.55.91.91,0,0,0-.33-.37,1,1,0,0,0-.48-.13,1,1,0,0,0-.48.13,1,1,0,0,0-.34.37,1.2,1.2,0,0,0-.12.55,1.25,1.25,0,0,0,.12.56.91.91,0,0,0,.34.36.86.86,0,0,0,.48.13A.91.91,0,0,0,29.29,16.24Z"/><path class="cls-12" d="M33.49,16.37h-.38v1.05H31.69v-4.2h2a2.64,2.64,0,0,1,1,.19,1.46,1.46,0,0,1,.9,1.4,1.51,1.51,0,0,1-.2.78,1.54,1.54,0,0,1-.59.54l.88,1.29H34.21Zm.57-1.93a.67.67,0,0,0-.43-.13h-.52v1h.52a.61.61,0,0,0,.43-.13.49.49,0,0,0,.14-.36A.5.5,0,0,0,34.06,14.44Z"/><path class="cls-12" d="M37,14.32H35.79v-1.1h3.87v1.1H38.43v3.1H37Z"/><path class="cls-12" d="M43.52,16.35v1.07H40v-4.2h3.41v1.07h-2v.49H43.2v1H41.42v.55Z"/><path class="cls-12" d="M44.07,13.22h2.07a2.89,2.89,0,0,1,1.24.26,2,2,0,0,1,.83.73,2,2,0,0,1,.3,1.11,2.06,2.06,0,0,1-.3,1.12,2,2,0,0,1-.83.73,2.89,2.89,0,0,1-1.24.25H44.07Zm2,3.1a1.05,1.05,0,0,0,.73-.26,1,1,0,0,0,.27-.74,1,1,0,0,0-.27-.73,1,1,0,0,0-.73-.26h-.6v2Z"/><path class="cls-12" d="M54.76,15.63a1,1,0,0,1,.2.63,1,1,0,0,1-.45.86,2.43,2.43,0,0,1-1.32.3H50.82v-4.2h2.25a2.17,2.17,0,0,1,1.26.3.93.93,0,0,1,.43.8,1,1,0,0,1-.14.53,1.18,1.18,0,0,1-.44.38A1.24,1.24,0,0,1,54.76,15.63Zm-2.55-1.42v.63h.66c.31,0,.47-.11.47-.32s-.16-.31-.47-.31Zm1.32,1.89c0-.22-.15-.33-.46-.33h-.86v.66h.86C53.38,16.43,53.53,16.32,53.53,16.1Z"/><path class="cls-12" d="M57.87,15.9v1.52H56.45V15.88l-1.58-2.66h1.49l.86,1.45.86-1.45h1.37Z"/></svg>