<?xml version="1.0" standalone="no"?>
<!DOCTYPE svg PUBLIC "-//W3C//DTD SVG 20010904//EN"
 "http://www.w3.org/TR/2001/REC-SVG-20010904/DTD/svg10.dtd">
<svg version="1.0" xmlns="http://www.w3.org/2000/svg"
 width="1280.000000pt" height="1280.000000pt" viewBox="0 0 1280.000000 1280.000000"
 preserveAspectRatio="xMidYMid meet">

<g transform="translate(0.000000,1280.000000) scale(0.100000,-0.100000)"
fill="#000000" stroke="none">
<path d="M2702 12375 c-90 -19 -170 -39 -178 -46 -37 -31 -22 -57 407 -701
232 -348 425 -637 429 -641 7 -8 117 114 258 286 60 74 70 91 58 101 -7 6
-160 230 -338 498 -178 268 -337 497 -352 509 -42 33 -102 32 -284 -6z m-72
-51 c0 -3 -14 -26 -32 -51 -29 -43 -32 -45 -45 -27 -21 29 -13 67 17 75 32 9
60 11 60 3z m533 -258 c-4 -6 -61 -91 -127 -189 l-120 -177 -76 117 -77 117
105 160 c58 89 114 174 125 189 l19 28 79 -117 c43 -65 75 -122 72 -128z m280
-401 l77 -115 -122 -185 c-68 -101 -125 -184 -128 -184 -10 -1 -151 221 -148
233 4 17 232 365 239 366 3 0 40 -52 82 -115z"/>
<path d="M8640 12364 c-182 -49 -341 -110 -520 -199 -155 -77 -176 -89 -302
-171 -144 -93 -267 -186 -392 -295 -59 -52 -124 -108 -146 -125 l-38 -32 -118
29 c-143 35 -394 74 -572 90 -144 12 -778 9 -799 -4 -10 -7 -13 -166 -13 -740
0 -697 -1 -734 -19 -774 -23 -51 -56 -69 -140 -79 -86 -9 -102 -24 -110 -107
-5 -49 -13 -73 -28 -88 -19 -19 -19 -24 -7 -48 10 -19 12 -49 8 -118 l-7 -91
39 -36 c21 -20 35 -36 30 -36 -6 0 -19 9 -30 19 -16 14 -48 22 -126 30 -133
15 -512 26 -536 17 -16 -7 -14 -10 19 -27 38 -20 69 -48 189 -175 40 -42 90
-83 127 -102 64 -35 107 -78 117 -119 4 -14 -1 -60 -10 -102 -20 -94 -20 -134
-2 -214 14 -59 20 -174 48 -827 18 -400 17 -2845 0 -3310 -27 -742 -52 -1097
-82 -1149 -29 -52 -55 258 -82 969 -17 458 -17 2685 0 3180 13 390 28 703 38
838 l7 84 -32 -16 c-17 -9 -52 -19 -78 -23 l-48 -6 29 24 c37 29 101 165 127
270 37 146 4 251 -119 373 -160 158 -223 165 -267 26 -12 -36 -31 -68 -55 -91
l-38 -36 49 -22 c67 -31 139 -86 174 -134 41 -57 47 -138 13 -187 -42 -62 -61
-66 -330 -74 -134 -4 -244 -9 -246 -10 -1 -2 -9 -115 -18 -252 -25 -390 -11
-926 37 -1369 70 -656 169 -1200 350 -1915 94 -373 139 -568 139 -604 0 -9 -4
-16 -10 -16 -49 0 -318 708 -434 1145 -114 431 -197 888 -242 1335 -8 85 -18
304 -21 485 -8 455 12 753 73 1073 15 75 26 146 25 157 -1 11 -2 54 -2 96 1
46 -4 82 -12 91 -6 9 -91 39 -187 67 l-174 51 -71 -34 c-38 -19 -85 -37 -102
-41 -18 -4 -33 -12 -33 -18 0 -7 -7 -75 -15 -152 -8 -77 -18 -248 -21 -380
-32 -1207 346 -2679 1091 -4246 123 -260 281 -565 512 -989 83 -151 169 -313
192 -359 l43 -84 -43 7 c-176 28 -438 166 -644 338 -915 764 -1629 2596 -1790
4590 -22 272 -38 741 -30 898 19 407 71 866 166 1462 21 136 39 250 39 254 0
3 15 3 32 -1 22 -5 30 -4 23 3 -5 5 -23 12 -40 15 -30 5 -30 4 -93 -128 -128
-269 -160 -424 -197 -965 -8 -118 -21 -240 -29 -271 -13 -47 -14 -186 -10
-955 2 -494 7 -926 10 -959 28 -294 179 -1010 308 -1455 49 -172 169 -537 191
-587 8 -17 15 -38 15 -46 0 -9 5 -19 10 -22 6 -3 10 -13 10 -22 0 -8 7 -31 16
-51 9 -21 21 -48 26 -62 6 -14 14 -33 19 -42 5 -10 9 -22 9 -27 0 -5 14 -40
31 -78 17 -37 37 -84 46 -103 47 -108 67 -149 137 -290 42 -85 92 -182 110
-215 19 -33 40 -71 46 -84 6 -13 24 -44 40 -68 17 -24 30 -47 30 -50 0 -16
223 -339 311 -449 115 -144 302 -341 424 -444 142 -121 395 -279 482 -302 17
-5 26 -20 60 -98 8 -19 19 -43 24 -53 19 -36 68 -245 79 -340 12 -95 9 -296
-4 -328 -6 -13 -35 -17 -174 -23 -685 -28 -1454 -127 -1967 -252 -143 -34
-375 -107 -455 -141 -153 -66 -253 -126 -328 -197 -68 -64 -93 -114 -99 -198
-6 -90 17 -160 76 -229 43 -49 178 -145 251 -178 120 -53 141 -61 153 -61 7 0
17 -4 22 -9 9 -8 59 -24 200 -66 88 -27 326 -83 460 -109 594 -116 1284 -184
2105 -206 l335 -9 95 26 c170 45 402 177 924 523 287 191 755 514 859 593 38
29 55 35 114 40 99 8 163 34 320 128 731 440 1295 953 1692 1539 374 551 621
1179 786 1995 54 267 41 360 -68 481 -161 178 -474 178 -650 0 -83 -85 -95
-117 -128 -349 -145 -999 -449 -1716 -993 -2344 -169 -195 -568 -571 -597
-561 -8 3 -12 78 -14 253 -2 262 -13 377 -61 633 -91 497 -279 1070 -564 1717
-97 220 -372 774 -490 985 -44 80 -78 150 -76 156 2 6 30 16 62 23 100 22 432
136 569 196 929 404 1618 1157 1840 2012 57 222 69 328 70 618 0 303 -11 399
-70 631 -87 340 -259 679 -483 952 -42 52 -85 104 -95 116 -18 22 -18 25 7
107 165 549 216 1073 135 1393 -34 135 -109 276 -165 313 -35 22 -182 27 -254
7z m174 -81 c66 -150 42 -546 -63 -1063 -33 -163 -67 -317 -82 -372 l-10 -37
-80 67 c-99 83 -157 122 -179 122 -9 0 -25 -9 -35 -20 -17 -19 -19 -19 -104
27 -47 25 -124 66 -171 91 -47 24 -152 81 -235 125 -82 44 -171 91 -196 104
-40 21 -45 27 -41 52 6 40 -28 63 -161 107 -62 20 -115 40 -120 44 -18 16 282
262 481 394 257 170 512 291 767 365 95 27 102 29 161 30 50 1 51 0 68 -36z
m-2589 -893 c223 -95 453 -220 645 -351 265 -181 553 -456 756 -724 97 -127
97 -129 -3 -79 -120 61 -204 77 -361 72 -83 -3 -137 -9 -157 -18 -39 -20 -75
-75 -75 -117 0 -42 41 -89 68 -78 113 49 194 69 292 73 124 5 200 -11 302 -65
131 -69 192 -152 347 -475 312 -649 513 -1489 592 -2473 l12 -149 -69 -64
c-426 -392 -981 -683 -1588 -832 -320 -78 -496 -100 -848 -107 l-288 -5 0 757
0 758 58 -7 c325 -38 571 -24 758 45 94 35 189 103 232 167 20 30 76 94 125
141 86 85 101 113 75 139 -24 24 -52 11 -121 -54 -183 -173 -378 -255 -604
-256 -151 0 -292 34 -433 105 l-65 32 -3 330 c-1 199 -6 333 -12 339 -6 6 -10
25 -10 42 0 31 5 36 81 75 150 78 219 171 226 304 8 155 8 160 -20 207 -39 67
-105 98 -209 98 l-78 0 0 1155 0 1155 138 -49 c75 -26 182 -67 237 -91z m-647
-1904 c89 -84 117 -189 72 -277 -19 -36 -70 -79 -95 -79 -7 0 -15 71 -22 183
-7 101 -15 191 -19 200 -11 30 15 19 64 -27z m-580 -883 c-10 -2 -26 -2 -35 0
-10 3 -2 5 17 5 19 0 27 -2 18 -5z m1875 -2910 c369 -729 545 -1250 624 -1848
26 -200 24 -642 -5 -832 -88 -586 -313 -1089 -696 -1558 -32 -38 -61 -71 -66
-73 -4 -1 -10 24 -14 57 -10 88 -51 247 -86 337 -84 210 -195 321 -362 358
-35 8 -83 22 -108 31 -83 31 -209 5 -277 -58 l-23 -20 0 301 0 302 168 0 c264
0 378 36 496 154 209 209 251 656 121 1291 -13 66 -21 123 -17 126 4 4 115 64
247 134 280 149 305 166 305 202 0 34 -26 63 -56 63 -13 0 -99 -40 -191 -89
-145 -77 -178 -91 -243 -101 -122 -18 -441 -24 -594 -11 -215 18 -226 20 -226
44 0 32 36 100 72 134 18 18 230 137 470 266 241 129 444 240 453 247 8 7 15
28 15 46 0 40 -36 70 -71 59 -12 -4 -105 -52 -206 -106 -101 -55 -188 -100
-194 -102 -6 -1 -48 102 -93 228 -46 127 -115 310 -155 408 -39 98 -71 180
-71 182 0 3 33 5 74 5 129 0 498 31 587 49 4 0 59 -101 122 -226z m-866 -33
c72 -199 219 -650 225 -691 3 -17 -22 -34 -148 -102 -84 -45 -169 -94 -190
-110 l-39 -27 -3 562 c-1 310 0 568 2 574 3 7 18 9 42 5 l37 -6 74 -205z
m3968 -682 c108 -237 153 -465 142 -727 -8 -173 -31 -295 -92 -479 -214 -642
-822 -1307 -1787 -1954 -82 -55 -151 -98 -154 -96 -2 2 10 36 26 75 16 39 41
113 54 164 22 83 30 98 62 124 453 366 752 685 1009 1075 215 327 365 641 490
1030 74 232 165 623 191 818 3 28 10 52 14 52 4 0 24 -37 45 -82z m-4091 -837
c36 -33 118 -69 187 -81 91 -16 163 -1 272 56 49 25 90 44 92 42 8 -8 55 -371
65 -503 26 -337 -26 -606 -141 -730 -83 -90 -179 -118 -384 -113 l-120 3 -3
673 c-1 369 1 672 5 672 4 0 16 -9 27 -19z m-214 -2063 c0 -233 3 -704 7
-1047 l6 -624 -219 7 c-1443 45 -2634 263 -2925 537 -64 59 -64 79 4 144 215
208 1072 405 2132 489 264 21 547 38 552 32 3 -2 -15 -41 -38 -87 -42 -81 -42
-83 -28 -122 8 -22 26 -49 40 -60 34 -25 94 -25 128 0 53 39 146 250 179 408
26 127 23 458 -6 592 -12 56 -25 108 -27 116 -5 10 11 16 67 24 40 5 85 10
101 11 l27 2 0 -422z"/>
<path d="M7123 9725 c-102 -31 -185 -105 -231 -204 -22 -47 -27 -70 -26 -141
0 -110 32 -186 110 -260 80 -76 128 -94 249 -95 91 0 105 3 158 30 75 37 149
118 178 193 28 73 31 177 6 248 l-18 51 -40 -11 c-77 -20 -135 36 -127 126 l3
43 -50 17 c-59 20 -153 22 -212 3z"/>
<path d="M7835 9713 c44 -117 46 -325 3 -430 -88 -211 -283 -346 -503 -347
-103 0 -172 17 -265 66 -59 30 -69 33 -45 14 107 -91 201 -128 341 -134 165
-7 290 41 405 157 169 169 208 415 99 631 -28 55 -51 83 -35 43z"/>
<path d="M6515 8836 c-56 -14 -115 -42 -115 -55 0 -11 61 -21 136 -21 76 0
200 -31 265 -66 109 -60 201 -199 250 -379 41 -152 54 -189 66 -192 19 -7 28
44 27 157 -1 179 -53 318 -159 426 -120 122 -301 172 -470 130z"/>
<path d="M6357 8432 c-23 -26 -21 -118 4 -143 24 -24 61 -24 82 -1 23 25 23
124 1 146 -21 21 -67 20 -87 -2z"/>
<path d="M6667 8282 c-24 -27 -23 -123 1 -145 24 -22 65 -21 85 1 24 27 23
123 -1 145 -24 22 -65 21 -85 -1z"/>
<path d="M6301 8141 c-15 -15 -19 -33 -19 -75 1 -48 4 -60 26 -76 30 -25 44
-25 71 -2 16 13 21 30 22 76 2 51 -1 62 -21 78 -29 23 -55 23 -79 -1z"/>
<path d="M3614 752 c4 -6 56 -27 117 -46 214 -68 559 -133 861 -162 230 -22
579 -15 714 14 85 19 184 54 184 66 0 3 -80 3 -177 -1 -266 -9 -580 15 -1229
92 -359 43 -480 53 -470 37z"/>
<path d="M4294 12026 c-5 -14 3 -40 27 -84 59 -112 69 -126 81 -114 9 9 0 34
-30 94 -22 46 -47 92 -56 103 -14 20 -15 20 -22 1z"/>
<path d="M5062 11945 c-47 -173 -47 -189 -10 -201 31 -10 48 16 69 102 21 86
23 101 12 90 -4 -3 -16 -44 -27 -89 -18 -70 -24 -82 -43 -85 -29 -4 -30 14 -3
120 12 44 19 85 17 92 -2 6 -9 -7 -15 -29z"/>
<path d="M4602 11908 c-7 -7 -12 -18 -12 -26 0 -24 62 -246 73 -259 14 -19 35
-16 47 7 8 16 3 48 -25 147 -38 137 -53 161 -83 131z m67 -122 c35 -127 38
-156 16 -156 -9 0 -20 20 -29 53 -59 205 -60 217 -32 217 9 0 25 -42 45 -114z"/>
<path d="M4353 11669 c9 -5 17 -18 18 -27 0 -11 2 -12 6 -4 6 15 -14 42 -31
42 -6 0 -3 -5 7 -11z"/>
<path d="M4344 11510 c0 -63 1 -89 3 -57 2 31 2 83 0 115 -2 31 -3 5 -3 -58z"/>
<path d="M4384 11485 c0 -71 1 -99 3 -62 2 37 2 96 0 130 -2 34 -3 4 -3 -68z"/>
<path d="M4535 11439 c-5 -15 8 -51 45 -123 29 -55 57 -107 63 -113 15 -20 36
-15 43 11 8 35 -99 246 -125 246 -11 0 -23 -9 -26 -21z"/>
<path d="M5367 11412 c-19 -21 -18 -23 76 -154 71 -101 90 -114 119 -80 20 22
17 30 -70 150 -76 105 -95 118 -125 84z"/>
<path d="M4012 11368 c-11 -14 -46 -177 -39 -184 2 -2 12 37 23 88 14 68 23
93 34 93 10 0 17 -14 21 -40 l6 -40 2 36 c2 48 -24 74 -47 47z"/>
<path d="M4332 11345 c0 -16 2 -22 5 -12 2 9 2 23 0 30 -3 6 -5 -1 -5 -18z"/>
<path d="M4372 11315 c0 -16 2 -22 5 -12 2 9 2 23 0 30 -3 6 -5 -1 -5 -18z"/>
<path d="M4042 11260 c0 -14 2 -19 5 -12 2 6 2 18 0 25 -3 6 -5 1 -5 -13z"/>
<path d="M4356 11265 c-6 -16 -9 -17 -16 -5 -6 9 -10 10 -10 3 0 -17 20 -27
32 -15 6 6 8 16 6 23 -3 9 -7 6 -12 -6z"/>
<path d="M4459 11224 c-18 -22 -58 -258 -47 -278 11 -19 34 -21 44 -4 10 16
50 250 46 270 -4 23 -28 30 -43 12z m31 -33 c0 -15 -9 -76 -20 -136 -11 -60
-20 -110 -20 -112 0 -2 -7 -3 -15 -3 -10 0 -15 10 -15 28 0 30 39 242 47 254
9 15 23 -3 23 -31z"/>
<path d="M4939 11179 c-30 -34 -64 -73 -76 -88 l-22 -26 1 58 c1 42 -3 62 -15
74 -11 11 -20 14 -26 8 -5 -6 -16 -63 -25 -127 -9 -64 -27 -155 -41 -203 -26
-90 -31 -130 -16 -139 15 -10 38 4 49 28 9 21 43 139 56 199 5 22 11 27 25 22
14 -4 40 17 107 90 90 98 105 125 84 151 -22 26 -46 15 -101 -47z m89 42 c8
-5 12 -15 10 -24 -5 -25 -161 -197 -178 -197 -47 0 -28 42 66 146 42 46 79 84
83 84 3 0 12 -4 19 -9z m-202 -137 c-9 -138 -64 -340 -89 -331 -17 6 -14 38
16 147 14 52 30 135 36 183 11 95 17 111 33 101 7 -5 9 -38 4 -100z"/>
<path d="M4032 11210 c0 -14 2 -19 5 -12 2 6 2 18 0 25 -3 6 -5 1 -5 -13z"/>
<path d="M4022 11160 c0 -14 2 -19 5 -12 2 6 2 18 0 25 -3 6 -5 1 -5 -13z"/>
<path d="M3962 11150 c0 -14 2 -19 5 -12 2 6 2 18 0 25 -3 6 -5 1 -5 -13z"/>
<path d="M4010 11111 c0 -28 -14 -33 -36 -12 -18 17 -19 17 -29 0 -5 -10 -29
-51 -51 -91 -23 -40 -74 -116 -113 -168 -39 -52 -71 -102 -71 -112 0 -18 24
-24 54 -12 34 13 226 294 226 331 0 8 7 21 15 29 14 14 21 54 10 54 -3 0 -5
-9 -5 -19z m-30 -52 c0 -39 -149 -271 -208 -323 -20 -17 -52 -16 -52 2 0 5 25
40 56 78 30 38 78 107 106 154 28 47 55 91 60 98 16 19 38 14 38 -9z"/>
<path d="M4189 10953 c-11 -15 -11 -16 1 -5 41 36 40 -9 -3 -101 -19 -40 -63
-116 -100 -170 -36 -54 -60 -93 -52 -87 49 41 195 304 195 352 0 32 -20 37
-41 11z"/>
<path d="M4136 10852 c-15 -31 -57 -100 -92 -153 -35 -53 -64 -102 -63 -110 0
-8 4 -5 9 7 4 11 33 57 64 103 56 82 121 200 114 207 -2 2 -17 -22 -32 -54z"/>
<path d="M4553 10884 c-3 -9 4 -59 16 -111 19 -75 21 -99 12 -125 -6 -17 -11
-47 -11 -67 0 -33 3 -37 37 -48 21 -6 40 -10 42 -7 3 2 8 32 12 66 5 46 3 74
-10 117 -10 31 -24 81 -31 111 -7 30 -17 61 -23 68 -13 17 -36 15 -44 -4z"/>
<path d="M3455 10784 c-70 -77 -86 -100 -83 -122 2 -20 9 -28 29 -30 21 -2 39
13 110 93 89 103 98 118 79 140 -24 29 -49 14 -135 -81z m133 64 c4 -23 -165
-210 -187 -206 -34 7 -15 48 64 138 58 65 85 90 100 88 11 -2 21 -11 23 -20z"/>
<path d="M4929 10753 c-10 -11 -15 -53 -17 -137 l-3 -121 38 -12 c29 -9 40 -9
46 0 12 18 0 256 -14 273 -15 19 -33 18 -50 -3z"/>
<path d="M4224 10732 c-26 -18 -44 -60 -44 -103 0 -48 9 -59 50 -59 21 0 34
56 28 124 -3 40 -14 52 -34 38z"/>
<path d="M4034 9731 c-43 -26 -137 -50 -201 -51 -7 0 -13 -7 -13 -15 0 -18 34
-23 175 -28 121 -4 180 -22 225 -71 30 -33 24 -45 -45 -98 -92 -69 -177 -74
-314 -18 -44 19 -83 31 -87 28 -6 -7 -33 -116 -34 -139 0 -11 28 -24 103 -47
199 -62 275 -53 393 45 38 32 82 64 97 72 39 20 41 39 12 127 -49 155 -105
215 -203 221 -49 3 -64 0 -108 -26z"/>
</g>
</svg>
