<!-- Generated by IcoMoon.io -->
<svg version="1.1" xmlns="http://www.w3.org/2000/svg" width="1024" height="1024" viewBox="0 0 1024 1024">
<title></title>
<g id="icomoon-ignore">
</g>
<path fill="#000" d="M479.756 3.543c-56.905 4.039-109.203 16.016-159.446 36.496-128.053 52.086-229.957 154.628-281.193 282.893-32.527 81.353-43.369 169.793-31.677 257.665 10.205 76.534 38.338 150.73 81.566 215.005 76.889 114.234 196.58 192.895 330.869 217.343 34.44 6.236 65.125 8.646 101.691 8.008 23.598-0.425 38.763-1.559 60.164-4.464 64.7-8.716 130.675-31.464 186.8-64.345 125.289-73.487 213.942-196.934 242.358-337.389 7.37-36.496 10.275-65.479 10.275-102.754 0-10.913-0.354-25.086-0.709-31.535-6.732-105.802-45.354-205.509-111.542-287.712-16.653-20.693-41.81-47.054-60.306-63.141-83.55-72.708-180.989-114.518-291.61-125.077-13.748-1.276-63.637-1.913-77.243-0.992zM384.23 86.81c17.008 4.464 59.952 24.874 86.668 41.314 12.189 7.441 29.834 19.842 29.196 20.409-0.142 0.213-2.622 0.567-5.527 0.85l-5.244 0.496-0.354 52.794c-0.354 48.755-0.425 52.936-1.63 55.062-1.559 2.976-4.11 4.252-9.638 4.89-6.094 0.638-7.228 1.701-7.795 7.583-0.354 3.472-0.921 5.173-1.984 6.236-1.346 1.346-1.346 1.701-0.496 3.402 0.709 1.346 0.85 3.472 0.567 8.362l-0.496 6.449 2.764 2.551c1.488 1.417 2.48 2.551 2.126 2.551-0.425 0-1.346-0.638-2.126-1.346-1.134-0.992-3.402-1.559-8.929-2.126-9.425-1.063-36.283-1.842-37.984-1.205-1.134 0.496-0.992 0.709 1.346 1.913 2.693 1.417 4.89 3.402 13.393 12.401 2.835 2.976 6.378 5.882 9 7.228 4.535 2.48 7.583 5.527 8.291 8.433 0.283 0.992-0.071 4.252-0.709 7.228-1.417 6.661-1.417 9.496-0.142 15.165 0.992 4.181 1.417 12.331 3.402 58.605 1.276 28.346 1.205 201.611 0 234.563-1.913 52.582-3.685 77.739-5.811 81.424-2.055 3.685-3.898-18.283-5.811-68.668-1.205-32.456-1.205-190.273 0-225.351 0.921-27.637 1.984-49.818 2.693-59.385l0.496-5.953-2.268 1.134c-1.205 0.638-3.685 1.346-5.527 1.63l-3.402 0.425 2.055-1.701c2.622-2.055 7.157-11.693 9-19.134 2.622-10.346 0.283-17.787-8.433-26.433-11.338-11.197-15.803-11.693-18.921-1.842-0.85 2.551-2.197 4.819-3.898 6.449l-2.693 2.551 3.472 1.559c4.748 2.197 9.85 6.094 12.331 9.496 2.905 4.039 3.331 9.779 0.921 13.252-2.976 4.394-4.323 4.677-23.385 5.244-9.496 0.283-17.291 0.638-17.433 0.709-0.071 0.142-0.638 8.149-1.276 17.858-1.772 27.637-0.78 65.621 2.622 97.014 4.961 46.487 11.976 85.038 24.803 135.707 6.661 26.433 9.85 40.251 9.85 42.802 0 0.638-0.283 1.134-0.709 1.134-3.472 0-22.535-50.172-30.755-81.14-8.079-30.543-13.96-62.928-17.149-94.605-0.567-6.024-1.276-21.543-1.488-34.37-0.567-32.244 0.85-53.361 5.173-76.038 1.063-5.315 1.842-10.346 1.772-11.126s-0.142-3.827-0.142-6.803c0.071-3.26-0.283-5.811-0.85-6.449-0.425-0.638-6.449-2.764-13.252-4.748l-12.331-3.614-5.031 2.409c-2.693 1.346-6.024 2.622-7.228 2.905-1.276 0.283-2.339 0.85-2.339 1.276 0 0.496-0.496 5.315-1.063 10.771s-1.276 17.575-1.488 26.929c-2.268 85.534 24.519 189.847 77.314 300.893 8.716 18.425 19.913 40.039 36.283 70.086 5.882 10.701 11.976 22.181 13.606 25.441l3.047 5.953-3.047-0.496c-12.472-1.984-31.039-11.764-45.637-23.952-64.842-54.141-115.439-183.966-126.848-325.271-1.559-19.275-2.693-52.511-2.126-63.637 1.346-28.842 5.031-61.369 11.764-103.605 1.488-9.638 2.764-17.716 2.764-18 0-0.213 1.063-0.213 2.339 0.071 1.488 0.354 2.055 0.283 1.559-0.213-0.354-0.354-1.63-0.85-2.835-1.063-2.126-0.354-2.126-0.283-6.59 9.071-9.071 19.063-11.338 30.047-13.96 68.385-0.567 8.362-1.488 17.078-2.126 19.275-0.921 3.543-0.992 12.189-0.638 65.904l0.425 61.865-2.835-2.905c-6.945-7.157-10.063-24.944-10.063-57.542 0-33.448 4.606-85.747 9.921-112.109 3.685-18.212 6.945-38.551 8.433-52.582 1.346-12.401 2.835-14.811 19.559-32.811 29.763-32.102 46.842-54.424 56.692-74.267 7.299-14.669 8.787-23.669 5.669-34.511-0.638-2.126-1.276-5.244-1.559-6.945-0.354-2.693-0.142-3.331 1.63-5.173 2.339-2.409 4.606-2.622 11.055-0.992zM268.579 102.471c0 0.213-0.992 1.842-2.268 3.614-2.055 3.047-2.268 3.189-3.189 1.913-1.488-2.055-0.921-4.748 1.205-5.315 2.268-0.638 4.252-0.78 4.252-0.213zM706.808 105.376c4.677 10.63 2.976 38.692-4.464 75.33-2.339 11.551-4.748 22.464-5.811 26.362l-0.709 2.622-5.669-4.748c-7.016-5.882-11.126-8.646-12.685-8.646-0.638 0-1.772 0.638-2.48 1.417-1.205 1.346-1.346 1.346-7.37-1.913-3.331-1.772-8.787-4.677-12.118-6.449-3.331-1.701-10.771-5.74-16.653-8.858-5.811-3.118-12.118-6.449-13.89-7.37-2.835-1.488-3.189-1.913-2.905-3.685 0.425-2.835-1.984-4.464-11.409-7.583-4.394-1.417-8.149-2.835-8.504-3.118-1.276-1.134 19.984-18.567 34.086-27.921 18.212-12.047 36.283-20.622 54.353-25.866 6.732-1.913 7.228-2.055 11.409-2.126 3.543-0.071 3.614 0 4.819 2.551zM306.35 120.754c-0.283 0.425-4.323 6.449-9 13.393l-8.504 12.543-5.386-8.291-5.457-8.291 7.441-11.338c4.11-6.307 8.079-12.331 8.858-13.393l1.346-1.984 5.598 8.291c3.047 4.606 5.315 8.646 5.102 9.071zM326.192 149.171l5.457 8.149-8.646 13.11c-4.819 7.157-8.858 13.039-9.071 13.039-0.709 0.071-10.701-15.661-10.488-16.512 0.283-1.205 16.441-25.866 16.937-25.937 0.213 0 2.835 3.685 5.811 8.149zM523.338 168.659c15.803 6.732 32.102 15.59 45.708 24.874 18.779 12.827 39.188 32.314 53.574 51.306 6.874 9 6.874 9.142-0.213 5.598-8.504-4.323-14.456-5.457-25.582-5.102-5.882 0.213-9.709 0.638-11.126 1.276-2.764 1.417-5.315 5.315-5.315 8.291s2.905 6.307 4.819 5.527c8.008-3.472 13.748-4.89 20.693-5.173 8.787-0.354 14.173 0.78 21.401 4.606 9.283 4.89 13.606 10.771 24.59 33.661 22.11 45.991 36.354 105.518 41.952 175.249l0.85 10.559-4.89 4.535c-30.189 27.779-69.519 48.401-112.534 58.96-22.677 5.527-35.149 7.087-60.094 7.583l-20.409 0.354v-107.361l4.11 0.496c23.031 2.693 40.464 1.701 53.716-3.189 6.661-2.48 13.393-7.299 16.441-11.834 1.417-2.126 5.386-6.661 8.858-9.992 6.094-6.024 7.157-8.008 5.315-9.85-1.701-1.701-3.685-0.78-8.575 3.827-12.968 12.26-26.787 18.071-42.802 18.141-10.701 0-20.693-2.409-30.685-7.441l-4.606-2.268-0.213-23.385c-0.071-14.102-0.425-23.598-0.85-24.023s-0.709-1.772-0.709-2.976c0-2.197 0.354-2.551 5.74-5.315 10.63-5.527 15.519-12.118 16.016-21.543 0.567-10.984 0.567-11.338-1.417-14.669-2.764-4.748-7.441-6.945-14.811-6.945h-5.527v-163.698l9.779 3.472c5.315 1.842 12.897 4.748 16.795 6.449zM477.489 303.586c6.307 5.953 8.291 13.393 5.102 19.63-1.346 2.551-4.961 5.598-6.732 5.598-0.496 0-1.063-5.031-1.559-12.968-0.496-7.157-1.063-13.535-1.346-14.173-0.78-2.126 1.063-1.346 4.535 1.913zM436.387 366.16c-0.709 0.142-1.842 0.142-2.48 0-0.709-0.213-0.142-0.354 1.205-0.354s1.913 0.142 1.276 0.354zM569.259 572.377c26.149 51.661 38.621 88.581 44.22 130.959 1.842 14.173 1.701 45.495-0.354 58.96-6.236 41.527-22.181 77.172-49.322 110.408-2.268 2.693-4.323 5.031-4.677 5.173-0.283 0.071-0.709-1.701-0.992-4.039-0.709-6.236-3.614-17.504-6.094-23.882-5.953-14.882-13.819-22.748-25.653-25.37-2.48-0.567-5.882-1.559-7.653-2.197-5.882-2.197-14.811-0.354-19.63 4.11l-1.63 1.417v-42.732h11.905c18.708 0 26.787-2.551 35.149-10.913 14.811-14.811 17.787-46.487 8.575-91.487-0.921-4.677-1.488-8.716-1.205-8.929 0.283-0.283 8.149-4.535 17.504-9.496 19.842-10.559 21.614-11.764 21.614-14.315 0-2.409-1.842-4.464-3.968-4.464-0.921 0-7.016 2.835-13.535 6.307-10.275 5.457-12.614 6.449-17.22 7.157-8.646 1.276-31.251 1.701-42.094 0.78-15.236-1.276-16.016-1.417-16.016-3.118 0-2.268 2.551-7.087 5.102-9.496 1.276-1.276 16.299-9.709 33.307-18.85 17.078-9.142 31.464-17.008 32.102-17.504 0.567-0.496 1.063-1.984 1.063-3.26 0-2.835-2.551-4.961-5.031-4.181-0.85 0.283-7.441 3.685-14.598 7.512-7.157 3.898-13.323 7.087-13.748 7.228-0.425 0.071-3.402-7.228-6.59-16.157-3.26-9-8.149-21.968-10.984-28.913-2.764-6.945-5.031-12.756-5.031-12.897 0-0.213 2.339-0.354 5.244-0.354 9.142 0 35.291-2.197 41.598-3.472 0.283 0 4.181 7.157 8.646 16.016zM507.89 574.716c5.102 14.102 15.519 46.062 15.945 48.968 0.213 1.205-1.559 2.409-10.488 7.228-5.953 3.189-11.976 6.661-13.464 7.795l-2.764 1.913-0.213-39.826c-0.071-21.968 0-40.251 0.142-40.677 0.213-0.496 1.276-0.638 2.976-0.354l2.622 0.425 5.244 14.527zM789.082 623.046c7.653 16.795 10.842 32.952 10.063 51.519-0.567 12.26-2.197 20.905-6.52 33.944-15.165 45.495-58.251 92.621-126.636 138.47-5.811 3.898-10.701 6.945-10.913 6.803-0.142-0.142 0.709-2.551 1.842-5.315s2.905-8.008 3.827-11.622c1.559-5.882 2.126-6.945 4.394-8.787 32.102-25.937 53.291-48.543 71.503-76.18 15.236-23.173 25.866-45.424 34.724-72.991 5.244-16.441 11.693-44.149 13.535-57.968 0.213-1.984 0.709-3.685 0.992-3.685s1.701 2.622 3.189 5.811zM499.173 682.36c2.551 2.339 8.362 4.89 13.252 5.74 6.449 1.134 11.551 0.071 19.275-3.968 3.472-1.772 6.378-3.118 6.52-2.976 0.567 0.567 3.898 26.291 4.606 35.645 1.842 23.882-1.842 42.944-9.992 51.731-5.882 6.378-12.685 8.362-27.212 8.008l-8.504-0.213-0.213-47.692c-0.071-26.149 0.071-47.621 0.354-47.621s1.134 0.638 1.913 1.346zM484.008 828.554c0 16.512 0.213 49.889 0.496 74.196l0.425 44.22-15.519-0.496c-102.258-3.189-186.659-18.638-207.28-38.055-4.535-4.181-4.535-5.598 0.283-10.205 15.236-14.74 75.967-28.7 151.084-34.653 18.708-1.488 38.763-2.693 39.118-2.268 0.213 0.142-1.063 2.905-2.693 6.165-2.976 5.74-2.976 5.882-1.984 8.646 0.567 1.559 1.842 3.472 2.835 4.252 2.409 1.772 6.661 1.772 9.071 0 3.756-2.764 10.346-17.716 12.685-28.913 1.842-9 1.63-32.456-0.425-41.952-0.85-3.968-1.772-7.653-1.913-8.22-0.354-0.709 0.78-1.134 4.748-1.701 2.835-0.354 6.024-0.709 7.157-0.78l1.913-0.142v29.905z"></path>
<path fill="#000" d="M386.498 123.589c-0.354 0.992 0.213 2.835 1.913 5.953 4.181 7.937 4.89 8.929 5.74 8.079 0.638-0.638 0-2.409-2.126-6.661-1.559-3.26-3.331-6.52-3.968-7.299-0.992-1.417-1.063-1.417-1.559-0.071z"></path>
<path fill="#000" d="M440.922 129.329c-3.331 12.26-3.331 13.393-0.709 14.244 2.197 0.709 3.402-1.134 4.89-7.228s1.63-7.157 0.85-6.378c-0.283 0.213-1.134 3.118-1.913 6.307-1.276 4.961-1.701 5.811-3.047 6.024-2.055 0.283-2.126-0.992-0.213-8.504 0.85-3.118 1.346-6.024 1.205-6.52-0.142-0.425-0.638 0.496-1.063 2.055z"></path>
<path fill="#000" d="M408.324 131.951c-0.496 0.496-0.85 1.276-0.85 1.842 0 1.701 4.394 17.433 5.173 18.354 0.992 1.346 2.48 1.134 3.331-0.496 0.567-1.134 0.213-3.402-1.772-10.417-2.693-9.709-3.756-11.409-5.882-9.283zM413.072 140.596c2.48 9 2.693 11.055 1.134 11.055-0.638 0-1.417-1.417-2.055-3.756-4.181-14.527-4.252-15.378-2.268-15.378 0.638 0 1.772 2.976 3.189 8.079z"></path>
<path fill="#000" d="M390.679 148.887c0.638 0.354 1.205 1.276 1.276 1.913 0 0.78 0.142 0.85 0.425 0.283 0.425-1.063-0.992-2.976-2.197-2.976-0.425 0-0.213 0.354 0.496 0.78z"></path>
<path fill="#000" d="M390.041 160.155c0 4.464 0.071 6.307 0.213 4.039 0.142-2.197 0.142-5.882 0-8.149-0.142-2.197-0.213-0.354-0.213 4.11z"></path>
<path fill="#000" d="M392.876 161.927c0 5.031 0.071 7.016 0.213 4.394s0.142-6.803 0-9.212c-0.142-2.409-0.213-0.283-0.213 4.819z"></path>
<path fill="#000" d="M403.576 165.186c-0.354 1.063 0.567 3.614 3.189 8.716 2.055 3.898 4.039 7.583 4.464 8.008 1.063 1.417 2.551 1.063 3.047-0.78 0.567-2.48-7.016-17.433-8.858-17.433-0.78 0-1.63 0.638-1.842 1.488z"></path>
<path fill="#000" d="M462.536 167.1c-1.346 1.488-1.276 1.63 5.386 10.913 5.031 7.157 6.378 8.079 8.433 5.669 1.417-1.559 1.205-2.126-4.961-10.63-5.386-7.441-6.732-8.362-8.858-5.953z"></path>
<path fill="#000" d="M366.514 170.218c-0.78 0.992-3.26 12.543-2.764 13.039 0.142 0.142 0.85-2.622 1.63-6.236 0.992-4.819 1.63-6.59 2.409-6.59 0.709 0 1.205 0.992 1.488 2.835l0.425 2.835 0.142-2.551c0.142-3.402-1.701-5.244-3.331-3.331z"></path>
<path fill="#000" d="M389.191 171.848c0 1.134 0.142 1.559 0.354 0.85 0.142-0.638 0.142-1.63 0-2.126-0.213-0.425-0.354 0.071-0.354 1.276z"></path>
<path fill="#000" d="M392.025 173.974c0 1.134 0.142 1.559 0.354 0.85 0.142-0.638 0.142-1.63 0-2.126-0.213-0.425-0.354 0.071-0.354 1.276z"></path>
<path fill="#000" d="M368.64 177.871c0 0.992 0.142 1.346 0.354 0.85 0.142-0.425 0.142-1.276 0-1.772-0.213-0.425-0.354-0.071-0.354 0.921z"></path>
<path fill="#000" d="M390.892 177.517c-0.425 1.134-0.638 1.205-1.134 0.354-0.425-0.638-0.709-0.709-0.709-0.213 0 1.205 1.417 1.913 2.268 1.063 0.425-0.425 0.567-1.134 0.425-1.63-0.213-0.638-0.496-0.425-0.85 0.425z"></path>
<path fill="#000" d="M398.191 180.422c-1.276 1.559-4.11 18.283-3.331 19.7 0.78 1.346 2.409 1.488 3.118 0.283 0.709-1.134 3.543-17.716 3.26-19.134-0.283-1.63-1.984-2.126-3.047-0.85zM400.388 182.761c0 1.063-0.638 5.386-1.417 9.638s-1.417 7.795-1.417 7.937c0 0.142-0.496 0.213-1.063 0.213-0.709 0-1.063-0.709-1.063-1.984 0-2.126 2.764-17.149 3.331-18 0.638-1.063 1.63 0.213 1.63 2.197z"></path>
<path fill="#000" d="M432.206 183.611c-2.126 2.409-4.535 5.173-5.386 6.236l-1.559 1.842 0.071-4.11c0.071-2.976-0.213-4.394-1.063-5.244-0.78-0.78-1.417-0.992-1.842-0.567-0.354 0.425-1.134 4.464-1.772 9s-1.913 10.984-2.905 14.386c-1.842 6.378-2.197 9.212-1.134 9.85 1.063 0.709 2.693-0.283 3.472-1.984 0.638-1.488 3.047-9.85 3.968-14.102 0.354-1.559 0.78-1.913 1.772-1.559 0.992 0.283 2.835-1.205 7.583-6.378 6.378-6.945 7.441-8.858 5.953-10.701-1.559-1.842-3.26-1.063-7.157 3.331zM438.513 180.635c0.567 0.354 0.85 1.063 0.709 1.701-0.354 1.772-11.409 13.96-12.614 13.96-3.331 0-1.984-2.976 4.677-10.346 2.976-3.26 5.598-5.953 5.882-5.953 0.213 0 0.85 0.283 1.346 0.638zM424.198 190.344c-0.638 9.779-4.535 24.094-6.307 23.456-1.205-0.425-0.992-2.693 1.134-10.417 0.992-3.685 2.126-9.567 2.551-12.968 0.78-6.732 1.205-7.866 2.339-7.157 0.496 0.354 0.638 2.693 0.283 7.087z"></path>
<path fill="#000" d="M367.931 181.415c0 0.992 0.142 1.346 0.354 0.85 0.142-0.425 0.142-1.276 0-1.772-0.213-0.425-0.354-0.071-0.354 0.921z"></path>
<path fill="#000" d="M367.223 184.958c0 0.992 0.142 1.346 0.354 0.85 0.142-0.425 0.142-1.276 0-1.772-0.213-0.425-0.354-0.071-0.354 0.921z"></path>
<path fill="#000" d="M362.971 185.666c0 0.992 0.142 1.346 0.354 0.85 0.142-0.425 0.142-1.276 0-1.772-0.213-0.425-0.354-0.071-0.354 0.921z"></path>
<path fill="#000" d="M366.372 188.43c0 1.984-0.992 2.339-2.551 0.85-1.276-1.205-1.346-1.205-2.055 0-0.354 0.709-2.055 3.614-3.614 6.449-1.63 2.835-5.244 8.22-8.008 11.905s-5.031 7.228-5.031 7.937c0 1.276 1.701 1.701 3.827 0.85 2.409-0.921 16.016-20.834 16.016-23.456 0-0.567 0.496-1.488 1.063-2.055 0.992-0.992 1.488-3.827 0.709-3.827-0.213 0-0.354 0.638-0.354 1.346zM364.246 192.115c0 2.764-10.559 19.204-14.74 22.889-1.417 1.205-3.685 1.134-3.685-0.142 0-0.354 1.772-2.835 3.968-5.527 2.126-2.693 5.527-7.583 7.512-10.913s3.898-6.449 4.252-6.945c1.134-1.346 2.693-0.992 2.693 0.638z"></path>
<path fill="#000" d="M379.057 199.627c-0.78 1.063-0.78 1.134 0.071 0.354 2.905-2.551 2.835 0.638-0.213 7.157-1.346 2.835-4.464 8.22-7.087 12.047-2.551 3.827-4.252 6.59-3.685 6.165 3.472-2.905 13.819-21.543 13.819-24.944 0-2.268-1.417-2.622-2.905-0.78z"></path>
<path fill="#000" d="M375.301 206.784c-1.063 2.197-4.039 7.087-6.52 10.842s-4.535 7.228-4.464 7.795c0 0.567 0.283 0.354 0.638-0.496 0.283-0.78 2.339-4.039 4.535-7.299 3.968-5.811 8.575-14.173 8.079-14.669-0.142-0.142-1.205 1.559-2.268 3.827z"></path>
<path fill="#000" d="M404.852 204.517c-0.213 0.638 0.283 4.181 1.134 7.866 1.346 5.315 1.488 7.016 0.85 8.858-0.425 1.205-0.78 3.331-0.78 4.748 0 2.339 0.213 2.622 2.622 3.402 1.488 0.425 2.835 0.709 2.976 0.496 0.213-0.142 0.567-2.268 0.85-4.677 0.354-3.26 0.213-5.244-0.709-8.291-0.709-2.197-1.701-5.74-2.197-7.866s-1.205-4.323-1.63-4.819c-0.921-1.205-2.551-1.063-3.118 0.283z"></path>
<path fill="#000" d="M327.042 211.603c-4.961 5.457-6.094 7.087-5.882 8.646 0.142 1.417 0.638 1.984 2.055 2.126 1.488 0.142 2.764-0.921 7.795-6.59 6.307-7.299 6.945-8.362 5.598-9.921-1.701-2.055-3.472-0.992-9.567 5.74zM336.467 207.068c0.283 1.63-11.693 14.882-13.252 14.598-2.409-0.496-1.063-3.402 4.535-9.779 4.11-4.606 6.024-6.378 7.087-6.236 0.78 0.142 1.488 0.78 1.63 1.417z"></path>
<path fill="#000" d="M431.497 213.8c-0.709 0.78-1.063 3.756-1.205 9.709l-0.213 8.575 2.693 0.85c2.055 0.638 2.835 0.638 3.26 0 0.85-1.276 0-18.141-0.992-19.346-1.063-1.346-2.339-1.276-3.543 0.213z"></path>
<path fill="#000" d="M381.537 215.288c-1.842 1.276-3.118 4.252-3.118 7.299 0 3.402 0.638 4.181 3.543 4.181 1.488 0 2.409-3.968 1.984-8.787-0.213-2.835-0.992-3.685-2.409-2.693z"></path>
<path fill="#000" d="M368.073 286.224c-3.047 1.842-9.709 3.543-14.244 3.614-0.496 0-0.921 0.496-0.921 1.063 0 1.276 2.409 1.63 12.401 1.984 8.575 0.283 12.756 1.559 15.945 5.031 2.126 2.339 1.701 3.189-3.189 6.945-6.52 4.89-12.543 5.244-22.252 1.276-3.118-1.346-5.882-2.197-6.165-1.984-0.425 0.496-2.339 8.22-2.409 9.85 0 0.78 1.984 1.701 7.299 3.331 14.102 4.394 19.488 3.756 27.85-3.189 2.693-2.268 5.811-4.535 6.874-5.102 2.764-1.417 2.905-2.764 0.85-9-3.472-10.984-7.441-15.236-14.386-15.661-3.472-0.213-4.535 0-7.653 1.842z"></path>
<path fill="#000" d="M586.975 286.649c-7.228 2.197-13.11 7.441-16.37 14.456-1.559 3.331-1.913 4.961-1.842 9.992 0 7.795 2.268 13.181 7.795 18.425 5.669 5.386 9.071 6.661 17.645 6.732 6.449 0 7.441-0.213 11.197-2.126 5.315-2.622 10.559-8.362 12.614-13.677 1.984-5.173 2.197-12.543 0.425-17.575l-1.276-3.614-2.835 0.78c-5.457 1.417-9.567-2.551-9-8.929l0.213-3.047-3.543-1.205c-4.181-1.417-10.842-1.559-15.023-0.213z"></path>
<path fill="#000" d="M637.431 287.5c3.118 8.291 3.26 23.031 0.213 30.472-6.236 14.953-20.055 24.519-35.645 24.59-7.299 0-12.189-1.205-18.779-4.677-4.181-2.126-4.89-2.339-3.189-0.992 7.583 6.449 14.244 9.071 24.165 9.496 11.693 0.496 20.551-2.905 28.7-11.126 11.976-11.976 14.74-29.409 7.016-44.716-1.984-3.898-3.614-5.882-2.48-3.047z"></path>
<path fill="#000" d="M543.889 349.648c-3.968 0.992-8.149 2.976-8.149 3.898 0 0.78 4.323 1.488 9.638 1.488 5.386 0 14.173 2.197 18.779 4.677 7.724 4.252 14.244 14.102 17.716 26.858 2.905 10.771 3.827 13.393 4.677 13.606 1.346 0.496 1.984-3.118 1.913-11.126-0.071-12.685-3.756-22.535-11.268-30.189-8.504-8.646-21.33-12.189-33.307-9.212z"></path>
<path fill="#000" d="M532.693 378.278c-1.63 1.842-1.488 8.362 0.283 10.134 1.701 1.701 4.323 1.701 5.811 0.071 1.63-1.772 1.63-8.787 0.071-10.346-1.488-1.488-4.748-1.417-6.165 0.142z"></path>
<path fill="#000" d="M554.661 388.907c-1.701 1.913-1.63 8.716 0.071 10.275s4.606 1.488 6.024-0.071c1.701-1.913 1.63-8.716-0.071-10.275s-4.606-1.488-6.024 0.071z"></path>
<path fill="#000" d="M528.724 398.899c-1.063 1.063-1.346 2.339-1.346 5.315 0.071 3.402 0.283 4.252 1.842 5.386 2.126 1.772 3.118 1.772 5.031 0.142 1.134-0.921 1.488-2.126 1.559-5.386 0.142-3.614-0.071-4.394-1.488-5.527-2.055-1.63-3.898-1.63-5.598 0.071z"></path>
<path fill="#000" d="M338.31 922.521c0.283 0.425 3.968 1.913 8.291 3.26 15.165 4.819 39.614 9.425 61.015 11.48 16.299 1.559 41.031 1.063 50.598-0.992 6.024-1.346 13.039-3.827 13.039-4.677 0-0.213-5.669-0.213-12.543 0.071-18.85 0.638-41.102-1.063-87.093-6.52-25.441-3.047-34.015-3.756-33.307-2.622z"></path>
</svg>
